#!OML:ASF C:\Vicon Data\Big\jianyuan-12\jianyuan\Session 1\Capture.male.ASF
:FULLY-SPECIFIED
:DEGREES
209
root -12.501286 17.374746 -9.670518 -4.683497 -46.395724 15.847750
lowerback -6.593769 -1.532089 -10.049562 
upperback 2.693019 -0.900864 -2.279878 
thorax 6.714125 -0.787155 3.114797 
lowerneck 1.681315 -9.733286 -7.063994 
upperneck -6.554213 -12.429074 16.198494 
head -0.678015 -6.404636 5.994849 
rclavicle 0.000000 0.000000 
rhumerus -41.326106 -33.120693 -72.686005 
rradius 32.964103 
rwrist 35.747971 
rhand -20.377030 -5.724962 
rfingers 0.000000 
rthumb 5.975837 -35.620688 
lclavicle 0.000000 0.000000 
lhumerus -22.563087 35.381950 73.387528 
lradius 28.575581 
lwrist -48.404103 
lhand -12.227201 6.328739 
lfingers 0.000000 
lthumb 13.838118 35.848458 
rfemur -43.623206 -16.833386 19.423538 
rtibia 64.039715 
rfoot -17.600136 -6.537250 
rtoes -3.574117 
lfemur -8.904261 -3.966498 -27.495766 
ltibia 20.913096 
lfoot -26.752582 8.875105 
ltoes -28.607670 
210
root -12.548765 17.371977 -9.617670 -4.852709 -46.857298 15.999122
lowerback -6.577860 -1.522508 -10.088552 
upperback 2.754599 -0.879141 -2.305164 
thorax 6.769463 -0.781290 3.111398 
lowerneck 1.519310 -9.640473 -7.119097 
upperneck -6.449326 -12.306061 16.318993 
head -0.622803 -6.334843 6.030727 
rclavicle 0.000000 0.000000 
rhumerus -41.449033 -33.552518 -72.381780 
rradius 32.743916 
rwrist 36.058168 
rhand -20.509179 -5.842331 
rfingers 0.000000 
rthumb 5.848238 -35.741601 
lclavicle 0.000000 0.000000 
lhumerus -21.987613 34.553614 73.687769 
lradius 28.916365 
lwrist -47.558474 
lhand -12.296170 6.334280 
lfingers 0.000000 
lthumb 13.771568 35.858502 
rfemur -43.772940 -16.257565 19.422274 
rtibia 62.544520 
rfoot -17.848146 -6.686354 
rtoes -2.552435 
lfemur -8.365765 -3.819405 -27.607088 
ltibia 20.501120 
lfoot -26.894986 9.156186 
ltoes -28.869019 
211
root -12.592509 17.370379 -9.566308 -4.998040 -47.091490 16.040965
lowerback -6.379105 -1.607790 -10.092851 
upperback 2.794713 -1.018723 -2.263371 
thorax 6.717329 -0.850352 3.142922 
lowerneck 1.554929 -9.515708 -7.204278 
upperneck -6.581603 -12.126210 16.344750 
head -0.680712 -6.249590 6.064913 
rclavicle 0.000000 0.000000 
rhumerus -41.582967 -33.796491 -72.047906 
rradius 32.579165 
rwrist 36.446877 
rhand -20.635753 -5.868114 
rfingers 0.000000 
rthumb 5.726009 -35.770765 
lclavicle 0.000000 0.000000 
lhumerus -21.539499 33.932630 73.939972 
lradius 29.228215 
lwrist -46.833196 
lhand -12.359015 6.413354 
lfingers 0.000000 
lthumb 13.711003 35.941638 
rfemur -43.792635 -15.926215 19.485094 
rtibia 60.955427 
rfoot -18.022631 -6.986320 
rtoes -2.621562 
lfemur -7.759342 -3.857268 -27.672068 
ltibia 20.055399 
lfoot -26.982192 9.453437 
ltoes -29.113861 
212
root -12.642605 17.373803 -9.516980 -5.071021 -47.462929 16.070422
lowerback -6.320235 -1.651780 -10.057867 
upperback 2.817867 -1.087377 -2.256421 
thorax 6.716361 -0.883543 3.122688 
lowerneck 1.486109 -9.430955 -7.103930 
upperneck -6.578669 -12.008967 16.240256 
head -0.696188 -6.188752 6.018703 
rclavicle 0.000000 0.000000 
rhumerus -41.708704 -33.950371 -71.889260 
rradius 32.487345 
rwrist 36.517619 
rhand -20.803785 -5.989949 
rfingers 0.000000 
rthumb 5.563810 -35.896948 
lclavicle 0.000000 0.000000 
lhumerus -21.084012 33.391022 74.093787 
lradius 29.472062 
lwrist -46.204641 
lhand -12.458673 6.398860 
lfingers 0.000000 
lthumb 13.614888 35.933657 
rfemur -43.819561 -15.377888 19.563665 
rtibia 59.301038 
rfoot -18.238677 -7.364266 
rtoes -3.370654 
lfemur -7.202319 -3.811867 -27.690610 
ltibia 19.586304 
lfoot -27.116072 9.800596 
ltoes -29.356919 
213
root -12.689400 17.375622 -9.467579 -5.119163 -47.951493 16.211262
lowerback -6.402464 -1.636758 -10.087168 
upperback 2.833224 -1.053087 -2.255382 
thorax 6.776947 -0.871077 3.142300 
lowerneck 1.462847 -9.349677 -6.980365 
upperneck -6.679940 -11.884512 16.145537 
head -0.750734 -6.129479 5.978129 
rclavicle 0.000000 0.000000 
rhumerus -41.874184 -34.450973 -71.488648 
rradius 32.260011 
rwrist 36.866673 
rhand -20.755561 -5.943214 
rfingers 0.000000 
rthumb 5.610331 -35.848913 
lclavicle 0.000000 0.000000 
lhumerus -20.610599 32.873440 74.270588 
lradius 29.700693 
lwrist -45.802886 
lhand -12.633172 6.443556 
lfingers 0.000000 
lthumb 13.446745 35.989498 
rfemur -43.937822 -14.686236 19.516988 
rtibia 57.642249 
rfoot -18.514601 -7.549614 
rtoes -2.007317 
lfemur -6.743980 -3.805633 -27.791964 
ltibia 19.072747 
lfoot -27.273304 10.213037 
ltoes -29.333006 
214
root -12.736681 17.379018 -9.417484 -5.163865 -48.345018 16.253122
lowerback -6.383754 -1.662353 -10.030175 
upperback 2.846504 -1.095649 -2.241991 
thorax 6.784383 -0.890924 3.119521 
lowerneck 1.489804 -9.267591 -6.950979 
upperneck -6.778983 -11.765198 16.076832 
head -0.804421 -6.073613 5.962246 
rclavicle 0.000000 0.000000 
rhumerus -42.030164 -34.748638 -71.168143 
rradius 32.086901 
rwrist 37.207278 
rhand -20.762782 -5.985719 
rfingers 0.000000 
rthumb 5.603384 -35.891597 
lclavicle 0.000000 0.000000 
lhumerus -20.229089 32.287490 74.430638 
lradius 30.021091 
lwrist -45.023956 
lhand -12.724835 6.476999 
lfingers 0.000000 
lthumb 13.358451 36.028776 
rfemur -43.906891 -14.059930 19.480537 
rtibia 55.916022 
rfoot -18.643964 -7.734349 
rtoes -1.900015 
lfemur -6.224582 -3.749465 -27.831126 
ltibia 18.565878 
lfoot -27.379068 10.548833 
ltoes -29.389509 
215
root -12.783646 17.379373 -9.368041 -5.265603 -48.695071 16.311314
lowerback -6.309920 -1.688072 -9.984521 
upperback 2.867439 -1.144613 -2.217614 
thorax 6.769637 -0.914050 3.114824 
lowerneck 1.418356 -9.179250 -7.040252 
upperneck -6.741476 -11.652218 16.067559 
head -0.789840 -6.011984 5.971947 
rclavicle 0.000000 0.000000 
rhumerus -42.200836 -35.240359 -70.658522 
rradius 31.791871 
rwrist 37.398534 
rhand -20.790754 -5.646857 
rfingers 0.000000 
rthumb 5.576357 -35.553456 
lclavicle 0.000000 0.000000 
lhumerus -19.830617 31.900240 74.570385 
lradius 30.206182 
lwrist -44.543798 
lhand -12.846470 6.486151 
lfingers 0.000000 
lthumb 13.241177 36.045611 
rfemur -43.784158 -13.493141 19.398726 
rtibia 54.147168 
rfoot -18.700684 -7.924652 
rtoes -1.792354 
lfemur -5.650754 -3.623202 -27.888306 
ltibia 18.052070 
lfoot -27.412615 10.817862 
ltoes -29.626461 
216
root -12.832372 17.380292 -9.321304 -5.332338 -49.121568 16.482243
lowerback -6.408925 -1.704226 -10.050899 
upperback 2.875118 -1.147089 -2.212872 
thorax 6.838018 -0.921291 3.153784 
lowerneck 1.302812 -9.094904 -7.049836 
upperneck -6.683303 -11.538983 16.096321 
head -0.764344 -5.949764 5.977598 
rclavicle 0.000000 0.000000 
rhumerus -42.400152 -35.722852 -70.208123 
rradius 31.600098 
rwrist 37.622761 
rhand -20.791289 -5.259783 
rfingers 0.000000 
rthumb 5.575840 -35.166422 
lclavicle 0.000000 0.000000 
lhumerus -19.544563 31.112890 74.743157 
lradius 30.695601 
lwrist -43.619233 
lhand -12.855496 6.620683 
lfingers 0.000000 
lthumb 13.232412 36.180715 
rfemur -43.806146 -12.840359 19.258872 
rtibia 52.411922 
rfoot -18.803340 -8.088277 
rtoes -1.594760 
lfemur -5.198855 -3.632751 -28.006297 
ltibia 17.528740 
lfoot -27.506327 11.213064 
ltoes -29.580213 
217
root -12.881537 17.382377 -9.274801 -5.335770 -49.492413 16.499931
lowerback -6.430720 -1.737330 -10.007953 
upperback 2.877547 -1.196399 -2.172744 
thorax 6.859043 -0.946224 3.165517 
lowerneck 1.314447 -9.014196 -7.016547 
upperneck -6.775779 -11.423636 15.985113 
head -0.816092 -5.894415 5.946899 
rclavicle 0.000000 0.000000 
rhumerus -42.631204 -35.881814 -69.922400 
rradius 31.600234 
rwrist 37.880724 
rhand -20.735648 -5.301672 
rfingers 0.000000 
rthumb 5.629596 -35.206865 
lclavicle 0.000000 0.000000 
lhumerus -19.228916 30.973478 74.797243 
lradius 30.851667 
lwrist -43.519564 
lhand -12.936951 6.454310 
lfingers 0.000000 
lthumb 13.153959 36.019423 
rfemur -43.687942 -12.173791 19.180480 
rtibia 50.624233 
rfoot -18.754026 -8.389754 
rtoes -1.368706 
lfemur -4.653598 -3.589870 -28.015656 
ltibia 16.920462 
lfoot -27.531893 11.545200 
ltoes -29.601215 
218
root -12.929662 17.384692 -9.227640 -5.396480 -49.796850 16.561484
lowerback -6.410076 -1.751592 -9.968776 
upperback 2.877542 -1.222468 -2.169740 
thorax 6.849152 -0.957193 3.144034 
lowerneck 1.233113 -8.943153 -7.068465 
upperneck -6.687402 -11.336289 15.995556 
head -0.783217 -5.844686 5.953646 
rclavicle 0.000000 0.000000 
rhumerus -42.851695 -36.276264 -69.526550 
rradius 31.386555 
rwrist 38.218512 
rhand -20.784490 -5.312667 
rfingers 0.000000 
rthumb 5.582446 -35.219108 
lclavicle 0.000000 0.000000 
lhumerus -18.829636 30.710682 74.874604 
lradius 30.933961 
lwrist -43.221975 
lhand -13.037730 6.425389 
lfingers 0.000000 
lthumb 13.056817 35.996705 
rfemur -43.530507 -11.701970 19.052183 
rtibia 48.867509 
rfoot -18.727165 -8.404898 
rtoes -1.508576 
lfemur -4.039555 -3.633854 -28.077385 
ltibia 16.242430 
lfoot -27.541422 11.895075 
ltoes -29.638654 
219
root -12.979622 17.388900 -9.181786 -5.502302 -50.095495 16.657506
lowerback -6.394246 -1.775073 -9.989108 
upperback 2.890028 -1.254651 -2.151309 
thorax 6.858949 -0.975310 3.170604 
lowerneck 1.208374 -8.869894 -7.061857 
upperneck -6.673490 -11.241282 15.916715 
head -0.791793 -5.795196 5.930442 
rclavicle 0.000000 0.000000 
rhumerus -43.040477 -36.525423 -69.194024 
rradius 31.279843 
rwrist 38.253058 
rhand -20.743779 -5.236968 
rfingers 0.000000 
rthumb 5.621710 -35.142396 
lclavicle 0.000000 0.000000 
lhumerus -18.532308 30.266811 74.969792 
lradius 31.189448 
lwrist -42.580127 
lhand -13.053355 6.454186 
lfingers 0.000000 
lthumb 13.041748 36.026487 
rfemur -43.302382 -11.035464 18.809251 
rtibia 47.091291 
rfoot -18.668756 -8.598654 
rtoes -1.396561 
lfemur -3.401279 -3.632612 -28.153690 
ltibia 15.550056 
lfoot -27.520744 12.210603 
ltoes -29.761021 
220
root -13.028526 17.391131 -9.138005 -5.522853 -50.419020 16.724488
lowerback -6.437161 -1.795832 -9.990372 
upperback 2.888632 -1.280108 -2.117842 
thorax 6.886446 -0.990255 3.202391 
lowerneck 1.051343 -8.826889 -7.038813 
upperneck -6.560039 -11.194577 15.800882 
head -0.747329 -5.761558 5.881641 
rclavicle 0.000000 0.000000 
rhumerus -43.188465 -36.727319 -68.899555 
rradius 31.117349 
rwrist 38.591366 
rhand -20.774078 -5.336581 
rfingers 0.000000 
rthumb 5.592501 -35.242800 
lclavicle 0.000000 0.000000 
lhumerus -18.263405 29.940450 75.061601 
lradius 31.433454 
lwrist -42.212096 
lhand -13.042909 6.421498 
lfingers 0.000000 
lthumb 13.051782 35.993182 
rfemur -43.125659 -10.336069 18.611310 
rtibia 45.340256 
rfoot -18.548467 -8.809829 
rtoes -1.717591 
lfemur -2.838126 -3.556943 -28.195646 
ltibia 14.830906 
lfoot -27.457076 12.505878 
ltoes -29.658939 
